<svg width="283" height="108" viewBox="0 0 283 108" fill="none" xmlns="http://www.w3.org/2000/svg">
<g filter="url(#filter0_d_1_18747)">
<g clip-path="url(#clip0_1_18747)">
<path d="M128.993 49.9986C128.993 36.7382 123.725 24.0208 114.349 14.6442C104.972 5.2677 92.255 1.7389e-06 78.9946 0C65.7342 -1.73889e-06 53.0169 5.2677 43.6404 14.6442C34.2638 24.0208 28.9961 36.7382 28.9961 49.9986H44.6208C49.7984 49.9986 53.8363 45.6597 55.7327 40.8418C56.9778 37.6787 58.8671 34.7718 61.3173 32.3213C66.0056 27.6331 72.3644 24.9993 78.9946 24.9993C85.6248 24.9993 91.9836 27.6331 96.6719 32.3213C101.36 37.0096 103.994 43.3684 103.994 49.9986H128.993Z" fill="url(#paint0_linear_1_18747)"/>
<path d="M100.191 69.1352C102.703 63.069 103.997 56.5675 103.997 50.0017H128.993C128.993 77.6151 106.608 100 78.9948 100C74.6704 100 70.474 99.4511 66.4722 98.4191C68.7364 97.8357 70.9619 97.0928 73.1317 96.1942C79.1979 93.6815 84.7096 89.9988 89.3525 85.356C93.9953 80.7131 97.6783 75.2013 100.191 69.1352Z" fill="#4392F9"/>
<path d="M3.99994 49.9954C3.99994 56.5615 5.29319 63.0631 7.80584 69.1292C10.3185 75.1954 14.0014 80.7072 18.6442 85.35C23.2869 89.9925 28.7988 93.6755 34.8648 96.1882C40.9309 98.7009 47.4325 99.994 53.9985 99.994C60.5643 99.994 67.0658 98.7009 73.132 96.1882C79.1981 93.6755 84.7099 89.9925 89.3528 85.35C93.9956 80.7072 97.6783 75.1954 100.191 69.1292C102.704 63.0631 103.997 56.5615 103.997 49.9954H88.3723C83.1948 49.9954 79.1569 54.3343 77.2604 59.1519C77.2066 59.2892 77.1512 59.4258 77.0948 59.5625C75.8384 62.5954 73.9971 65.3515 71.6755 67.6727C69.3542 69.994 66.5982 71.8356 63.5653 73.092C60.5323 74.3483 57.2816 74.9949 53.9985 74.9949C50.7155 74.9949 47.4647 74.3483 44.4318 73.092C41.3986 71.8356 38.6428 69.994 36.3213 67.6727C33.9999 65.3515 32.1585 62.5954 30.9022 59.5625C29.6458 56.5293 28.9992 53.2785 28.9992 49.9954H3.99994Z" fill="url(#paint1_linear_1_18747)"/>
<path d="M4.00465 49.9986C4.00465 22.385 26.3897 0 54.003 0C58.3264 0 62.5216 0.548716 66.523 1.58035C57.9371 3.79217 50.0167 8.26832 43.6405 14.6443C34.264 24.0207 28.9963 36.7382 28.9963 49.9986H4.00465Z" fill="#F83758"/>
<path d="M151.138 64.36C149.911 64.36 148.718 64.2 147.558 63.88C146.398 63.56 145.151 63.06 143.818 62.38L142.438 64H141.198L140.418 53.86L142.078 53.6C142.931 56.5733 144.058 58.7267 145.458 60.06C146.871 61.3933 148.744 62.06 151.078 62.06C152.744 62.06 154.071 61.66 155.058 60.86C156.058 60.06 156.558 58.96 156.558 57.56C156.558 56.72 156.204 55.94 155.498 55.22C154.804 54.4867 153.604 53.7067 151.898 52.88L148.678 51.28C146.064 49.9867 144.144 48.5533 142.918 46.98C141.691 45.4067 141.078 43.5733 141.078 41.48C141.078 39.8667 141.524 38.4333 142.418 37.18C143.311 35.9133 144.518 34.92 146.038 34.2C147.571 33.48 149.304 33.12 151.238 33.12C153.944 33.12 156.264 33.94 158.198 35.58L159.138 33.48H160.458L160.838 42.24H159.098C158.444 39.9867 157.484 38.2933 156.218 37.16C154.964 36.0267 153.371 35.46 151.438 35.46C150.078 35.46 149.018 35.7933 148.258 36.46C147.498 37.1267 147.118 38.0467 147.118 39.22C147.118 40.1267 147.458 40.94 148.138 41.66C148.818 42.3667 149.998 43.1467 151.678 44L154.838 45.62C157.344 46.9 159.144 48.3067 160.238 49.84C161.344 51.3733 161.898 53.2133 161.898 55.36C161.898 57.0667 161.424 58.6 160.478 59.96C159.531 61.32 158.244 62.3933 156.618 63.18C154.991 63.9667 153.164 64.36 151.138 64.36ZM173.284 64.42C171.23 64.42 169.77 63.9733 168.904 63.08C168.037 62.1867 167.604 60.7533 167.604 58.78V45H164.804L164.564 43.78L172.544 37.7L173.764 37.9V43.02H179.884L179.304 45H173.764V58.38C173.764 60.5 174.59 61.56 176.244 61.56C176.71 61.56 177.15 61.48 177.564 61.32C177.977 61.16 178.357 60.8733 178.704 60.46L179.624 61.74C178.93 62.62 178.03 63.2867 176.924 63.74C175.817 64.1933 174.604 64.42 173.284 64.42ZM185.457 74.3C184.164 74.3 183.057 74.0133 182.137 73.44C181.231 72.8667 180.777 72.0133 180.777 70.88C180.777 70.12 181.031 69.5133 181.537 69.06C182.044 68.6067 182.644 68.38 183.337 68.38C183.924 68.38 184.444 68.5467 184.897 68.88C185.364 69.2133 185.697 69.72 185.897 70.4C186.084 71.0267 186.264 71.4333 186.437 71.62C186.611 71.82 186.877 71.92 187.237 71.92C187.704 71.92 188.164 71.6867 188.617 71.22C189.071 70.7533 189.444 70.1133 189.737 69.3L191.297 65.1L182.857 46C182.631 45.4933 182.291 45.1267 181.837 44.9C181.384 44.66 180.664 44.4933 179.677 44.4V43.02H192.597V44.4C191.757 44.4667 191.111 44.5733 190.657 44.72C190.217 44.8667 189.944 45.0733 189.837 45.34C189.731 45.6067 189.764 45.9533 189.937 46.38L194.537 57.22H194.737L198.717 47.54C199.171 46.5133 199.171 45.7533 198.717 45.26C198.277 44.7667 197.344 44.48 195.917 44.4V43.02H205.437V44.4C204.464 44.5867 203.717 44.7933 203.197 45.02C202.677 45.2467 202.271 45.56 201.977 45.96C201.684 46.3467 201.391 46.8867 201.097 47.58L191.977 69.58C191.604 70.4467 191.204 71.18 190.777 71.78C190.351 72.38 189.884 72.8733 189.377 73.26C188.404 73.9533 187.097 74.3 185.457 74.3ZM204.993 64V62.6L208.393 61.82V35.06L204.993 34V33.04L213.653 31.14H214.493V61.82L217.673 62.6V64H204.993ZM219.375 64V62.6L222.755 61.82V46.54L219.375 45.46V44.52L228.055 42.62H228.895V61.82L232.055 62.6V64H219.375ZM225.755 39.66C224.661 39.66 223.821 39.32 223.235 38.64C222.648 37.96 222.355 37.22 222.355 36.42C222.355 35.5533 222.655 34.7867 223.255 34.12C223.868 33.4533 224.701 33.12 225.755 33.12C226.835 33.12 227.688 33.4533 228.315 34.12C228.955 34.7867 229.275 35.5533 229.275 36.42C229.275 37.22 228.975 37.96 228.375 38.64C227.788 39.32 226.915 39.66 225.755 39.66ZM241.073 64.42C240.059 64.42 238.986 64.34 237.853 64.18C236.719 64.0333 235.746 63.8267 234.933 63.56L234.673 57.12H236.373C236.493 58.84 236.939 60.16 237.713 61.08C238.499 61.9867 239.579 62.44 240.953 62.44C241.979 62.44 242.799 62.18 243.413 61.66C244.026 61.1267 244.333 60.4333 244.333 59.58C244.333 58.9133 244.093 58.32 243.613 57.8C243.146 57.2667 242.346 56.7 241.213 56.1L239.293 55.12C237.719 54.2933 236.559 53.3733 235.813 52.36C235.079 51.3467 234.713 50.14 234.713 48.74C234.713 46.7267 235.446 45.2067 236.913 44.18C238.393 43.14 240.566 42.62 243.433 42.62C244.446 42.62 245.419 42.6867 246.353 42.82C247.299 42.94 248.059 43.1067 248.633 43.32V48.8H247.113C246.726 46 245.406 44.6 243.153 44.6C242.246 44.6 241.513 44.82 240.953 45.26C240.406 45.7 240.133 46.2733 240.133 46.98C240.133 47.6067 240.379 48.1733 240.873 48.68C241.366 49.1733 242.219 49.7133 243.433 50.3L245.333 51.28C246.813 52.04 247.906 52.9333 248.613 53.96C249.319 54.9733 249.673 56.2 249.673 57.64C249.673 59.7733 248.919 61.44 247.413 62.64C245.906 63.8267 243.793 64.42 241.073 64.42ZM251.987 64V62.6L254.947 61.82V35.1L251.967 34V33.08L260.247 31.14H261.107V61.82L263.867 62.6V64H251.987ZM266.047 64V62.6L268.827 61.82V50.98C268.827 49.3533 268.501 48.1533 267.847 47.38C267.194 46.5933 266.214 46.2 264.907 46.2C264.094 46.2 263.334 46.36 262.627 46.68C261.921 47 261.254 47.44 260.627 48V45.5C261.654 44.7 262.867 44.02 264.267 43.46C265.681 42.9 267.127 42.62 268.607 42.62C272.847 42.62 274.967 44.94 274.967 49.58V61.82L277.947 62.6V64H266.047Z" fill="#F83758"/>
</g>
<rect x="4.49994" y="0.5" width="273.993" height="99" stroke="black" shape-rendering="crispEdges"/>
</g>
<defs>
<filter id="filter0_d_1_18747" x="-6.10352e-05" y="0" width="282.993" height="108" filterUnits="userSpaceOnUse" color-interpolation-filters="sRGB">
<feFlood flood-opacity="0" result="BackgroundImageFix"/>
<feColorMatrix in="SourceAlpha" type="matrix" values="0 0 0 0 0 0 0 0 0 0 0 0 0 0 0 0 0 0 127 0" result="hardAlpha"/>
<feOffset dy="4"/>
<feGaussianBlur stdDeviation="2"/>
<feComposite in2="hardAlpha" operator="out"/>
<feColorMatrix type="matrix" values="0 0 0 0 0 0 0 0 0 0 0 0 0 0 0 0 0 0 0.25 0"/>
<feBlend mode="normal" in2="BackgroundImageFix" result="effect1_dropShadow_1_18747"/>
<feBlend mode="normal" in="SourceGraphic" in2="effect1_dropShadow_1_18747" result="shape"/>
</filter>
<linearGradient id="paint0_linear_1_18747" x1="128.993" y1="24.9993" x2="28.9961" y2="24.9993" gradientUnits="userSpaceOnUse">
<stop stop-color="#CFE2FC"/>
<stop offset="1" stop-color="#4392F9"/>
</linearGradient>
<linearGradient id="paint1_linear_1_18747" x1="3.99994" y1="74.9949" x2="103.997" y2="74.9949" gradientUnits="userSpaceOnUse">
<stop stop-color="#F8BCC6"/>
<stop offset="1" stop-color="#F83758"/>
</linearGradient>
<clipPath id="clip0_1_18747">
<rect x="3.99994" width="274.993" height="100" fill="white"/>
</clipPath>
</defs>
</svg>
